<svg width="16" height="17" viewBox="0 0 16 17" fill="none" xmlns="http://www.w3.org/2000/svg">
<ellipse cx="8" cy="9.01191" rx="4" ry="4.27381" fill="url(#paint0_linear_82_270)"/>
<g filter="url(#filter0_b_82_270)">
<path d="M15.4829 6.22229L10.6864 5.47626L8.54222 0.824176C8.48365 0.696805 8.38731 0.593695 8.26829 0.53102C7.96981 0.373323 7.6071 0.504737 7.45786 0.824176L5.3137 5.47626L0.517213 6.22229C0.384974 6.24251 0.26407 6.30922 0.171503 6.41031C0.0595945 6.53341 -0.0020722 6.69902 5.31712e-05 6.87075C0.00217854 7.04248 0.0679221 7.20629 0.182838 7.32617L3.65316 10.9472L2.83328 16.0602C2.81405 16.1791 2.82635 16.3015 2.86878 16.4133C2.91121 16.5251 2.98207 16.622 3.07333 16.693C3.16459 16.7639 3.27259 16.806 3.38509 16.8146C3.4976 16.8232 3.6101 16.7979 3.70983 16.7415L8.00004 14.3275L12.2902 16.7415C12.4074 16.8082 12.5434 16.8305 12.6737 16.8062C13.0024 16.7456 13.2235 16.412 13.1668 16.0602L12.3469 10.9472L15.8172 7.32617C15.9117 7.2271 15.974 7.09771 15.9929 6.95619C16.0439 6.60238 15.8135 6.27485 15.4829 6.22229Z" fill="url(#paint1_linear_82_270)"/>
<path d="M10.2323 5.68555L10.3445 5.9291L10.6095 5.97032L15.4043 6.71608C15.4045 6.71611 15.4046 6.71613 15.4048 6.71616C15.425 6.71949 15.4497 6.73194 15.4709 6.76236C15.4924 6.79311 15.5051 6.83609 15.498 6.88484L15.498 6.88484L15.4973 6.89003C15.4922 6.92826 15.4759 6.95946 15.4556 6.98084C15.4556 6.98094 15.4555 6.98104 15.4554 6.98114L11.9859 10.6012L11.8138 10.7807L11.8532 11.0263L12.6731 16.1394L12.6732 16.1397C12.6812 16.1895 12.6691 16.2343 12.6478 16.2665C12.6266 16.2985 12.6022 16.311 12.583 16.3145L12.5822 16.3147C12.5673 16.3174 12.5515 16.3149 12.5377 16.3071L12.5354 16.3058L8.24523 13.8918L8.00004 13.7538L7.75485 13.8918L3.46465 16.3058L3.46386 16.3062C3.44902 16.3146 3.43519 16.317 3.42314 16.3161C3.41099 16.3151 3.39597 16.3105 3.38018 16.2982C3.36402 16.2856 3.34732 16.2651 3.33627 16.236C3.32517 16.2067 3.32153 16.1731 3.32687 16.14L3.32697 16.1394L4.14685 11.0263L4.18623 10.7807L4.01414 10.6012L0.543821 6.98021L0.54379 6.98017C0.519889 6.95524 0.50063 6.91429 0.500015 6.86456C0.499404 6.81523 0.517365 6.77353 0.540881 6.7473C0.560651 6.72599 0.579732 6.71854 0.592778 6.71655L0.594058 6.71635L5.39055 5.97032L5.65554 5.9291L5.76779 5.68555L7.91086 1.03582C7.91098 1.03555 7.91111 1.03528 7.91123 1.03502C7.93033 0.994652 7.95719 0.976095 7.97726 0.968829C7.99648 0.961875 8.0148 0.962582 8.03472 0.973112L8.03532 0.973425C8.05252 0.982482 8.07331 1.00123 8.08793 1.03305L8.08813 1.03347L10.2323 5.68555Z" stroke="url(#paint2_linear_82_270)"/>
</g>
<defs>
<filter id="filter0_b_82_270" x="-4.81" y="-4.34571" width="25.62" height="25.972" filterUnits="userSpaceOnUse" color-interpolation-filters="sRGB">
<feFlood flood-opacity="0" result="BackgroundImageFix"/>
<feGaussianBlur in="BackgroundImageFix" stdDeviation="2.405"/>
<feComposite in2="SourceAlpha" operator="in" result="effect1_backgroundBlur_82_270"/>
<feBlend mode="normal" in="SourceGraphic" in2="effect1_backgroundBlur_82_270" result="shape"/>
</filter>
<linearGradient id="paint0_linear_82_270" x1="3.68182" y1="13.8038" x2="13.8108" y2="8.55867" gradientUnits="userSpaceOnUse">
<stop stop-color="#F3BE00"/>
<stop offset="1" stop-color="#FBEC65"/>
</linearGradient>
<linearGradient id="paint1_linear_82_270" x1="-0.636364" y1="17.8073" x2="19.2309" y2="7.05174" gradientUnits="userSpaceOnUse">
<stop stop-color="#F3BE00"/>
<stop offset="1" stop-color="#FBEC65"/>
</linearGradient>
<linearGradient id="paint2_linear_82_270" x1="2.54694" y1="2.36932" x2="13.0233" y2="15.0653" gradientUnits="userSpaceOnUse">
<stop stop-color="white" stop-opacity="0.25"/>
<stop offset="1" stop-color="white" stop-opacity="0"/>
</linearGradient>
</defs>
</svg>
