<svg width="43" height="46" viewBox="0 0 43 46" fill="none" xmlns="http://www.w3.org/2000/svg">
<g filter="url(#filter0_bd_90_118)">
<path d="M27.8004 18.0159C27.8004 18.8247 27.5458 19.6365 27.0368 20.2866C26.9413 20.4142 26.4958 20.9399 26.1458 21.282L25.9549 21.4687C23.2822 24.3024 16.6322 28.5639 13.2595 29.9294C13.2595 29.9605 11.2549 30.7724 10.3004 30.8004H10.1731C8.70948 30.8004 7.3413 29.9947 6.6413 28.6883C6.25948 27.9698 5.90948 25.8857 5.87766 25.8577C5.5913 23.9882 5.40039 21.1265 5.40039 17.9848C5.40039 14.6907 5.5913 11.7015 5.9413 9.86624C5.9413 9.83513 6.2913 8.15542 6.51403 7.59552C6.86403 6.78988 7.50039 6.10244 8.29585 5.66696C8.93221 5.35902 9.60039 5.20038 10.3004 5.20038C11.0322 5.23459 12.4004 5.69807 12.9413 5.91581C16.5049 7.28446 23.314 11.7637 25.9231 14.501C26.3686 14.9365 26.8458 15.4684 26.9731 15.5897C27.514 16.274 27.8004 17.1139 27.8004 18.0159Z" fill="url(#paint0_linear_90_118)"/>
<path d="M26.8793 20.1633L26.8793 20.1633L26.8766 20.1668C26.7875 20.2858 26.3489 20.8038 26.006 21.139L25.8151 21.3257L25.815 21.3255L25.8094 21.3314C24.4894 22.731 22.1745 24.4946 19.7598 26.0825C17.3461 27.6699 14.853 29.0685 13.1844 29.744L13.0595 29.7946V29.8054C13.0081 29.8277 12.9397 29.8561 12.8572 29.8889C12.6575 29.9686 12.3804 30.0727 12.0737 30.1767C11.4525 30.3873 10.741 30.5866 10.2974 30.6004H10.1731C8.78256 30.6004 7.48261 29.8348 6.81774 28.5941C6.64175 28.2627 6.46382 27.5901 6.32329 26.9698C6.25419 26.6649 6.19589 26.3811 6.15262 26.1705L6.15239 26.1694C6.13098 26.0652 6.11298 25.9775 6.09933 25.9151C6.09254 25.8841 6.0863 25.8568 6.08088 25.836C6.07845 25.8266 6.07542 25.8155 6.07191 25.8048C5.7895 23.9482 5.60039 21.1077 5.60039 17.9848C5.60039 14.6945 5.79133 11.7202 6.13776 9.9037L6.1413 9.88514V9.88178L6.14195 9.87815C6.14431 9.86537 6.14796 9.84653 6.15289 9.82194C6.16269 9.77296 6.17706 9.70343 6.19509 9.61867C6.23114 9.44919 6.28157 9.22012 6.3389 8.97467C6.45459 8.47937 6.59403 7.93687 6.69873 7.67231C7.02997 6.91172 7.63245 6.25941 8.38749 5.8448C8.99499 5.5516 9.6304 5.40109 10.2957 5.40038C10.6356 5.41712 11.1383 5.5348 11.636 5.68115C12.1313 5.8268 12.6025 5.99502 12.8666 6.10134L12.8666 6.10137L12.8696 6.10251C14.6311 6.77905 17.2101 8.23162 19.68 9.86207C22.1502 11.4927 24.4897 13.287 25.7783 14.639L25.7783 14.6391L25.7833 14.644C26.003 14.8587 26.2313 15.0981 26.4219 15.3003C26.4664 15.3476 26.5094 15.3933 26.5499 15.4365C26.6704 15.5649 26.7692 15.6701 26.8243 15.724C27.3311 16.3699 27.6004 17.1618 27.6004 18.0159C27.6004 18.7838 27.3586 19.5513 26.8793 20.1633ZM6.13971 9.89073L6.13972 9.89065C6.13917 9.89501 6.13887 9.89589 6.13971 9.89073Z" stroke="url(#paint1_linear_90_118)" stroke-width="0.4"/>
</g>
<defs>
<filter id="filter0_bd_90_118" x="-9.59961" y="-9.79962" width="52.3999" height="55.6" filterUnits="userSpaceOnUse" color-interpolation-filters="sRGB">
<feFlood flood-opacity="0" result="BackgroundImageFix"/>
<feGaussianBlur in="BackgroundImageFix" stdDeviation="7.5"/>
<feComposite in2="SourceAlpha" operator="in" result="effect1_backgroundBlur_90_118"/>
<feColorMatrix in="SourceAlpha" type="matrix" values="0 0 0 0 0 0 0 0 0 0 0 0 0 0 0 0 0 0 127 0" result="hardAlpha"/>
<feOffset dx="5" dy="5"/>
<feGaussianBlur stdDeviation="5"/>
<feColorMatrix type="matrix" values="0 0 0 0 0.995833 0 0 0 0 0.338256 0 0 0 0 0.273854 0 0 0 0.15 0"/>
<feBlend mode="normal" in2="effect1_backgroundBlur_90_118" result="effect2_dropShadow_90_118"/>
<feBlend mode="normal" in="SourceGraphic" in2="effect2_dropShadow_90_118" result="shape"/>
</filter>
<linearGradient id="paint0_linear_90_118" x1="18.2495" y1="19.7147" x2="-2.35663" y2="28.4814" gradientUnits="userSpaceOnUse">
<stop stop-color="#FF8F71"/>
<stop offset="1" stop-color="#EF2D1A"/>
</linearGradient>
<linearGradient id="paint1_linear_90_118" x1="8.96611" y1="8.18281" x2="25.6174" y2="26.228" gradientUnits="userSpaceOnUse">
<stop stop-color="white" stop-opacity="0.25"/>
<stop offset="1" stop-color="white" stop-opacity="0"/>
</linearGradient>
</defs>
</svg>
